<svg width="20" height="20" viewBox="0 0 20 20" fill="none" xmlns="http://www.w3.org/2000/svg">
<path d="M19.45 16.7993L14.8612 12.2106C14.1768 13.2737 13.2731 14.1781 12.21 14.8618L16.7993 19.4506C17.5318 20.1831 18.7187 20.1831 19.45 19.4506C20.1831 18.7199 20.1831 17.5331 19.45 16.7993Z" fill="white"/>
<path d="M15 7.5C15 3.35812 11.6419 0 7.5 0C3.35812 0 0 3.35812 0 7.5C0 11.6419 3.35812 15 7.5 15C11.6419 15 15 11.6419 15 7.5ZM7.5 13.125C4.3975 13.125 1.875 10.6025 1.875 7.5C1.875 4.39812 4.3975 1.875 7.5 1.875C10.6019 1.875 13.125 4.39812 13.125 7.5C13.125 10.6025 10.6019 13.125 7.5 13.125Z" fill="white"/>
<path d="M3.125 7.5H4.375C4.375 5.77687 5.77625 4.375 7.5 4.375V3.125C5.0875 3.125 3.125 5.08875 3.125 7.5Z" fill="white"/>
</svg>
